# Wavefront Obj file
# 
# verts: 68 uv-s: 158
mtllib bed.mtl

g bed:pCube3
#pivot 0.000000 0.000000 0.000000

v -1.332790 0.176688 2.364589
v 1.332790 0.176688 2.364589
v -1.332790 0.584345 2.364589
v 1.332790 0.584345 2.364589
v -1.332790 0.584345 -2.364589
v 1.332790 0.584345 -2.364589
v -1.332790 0.176688 -2.364589
v 1.332790 0.176688 -2.364589
v -1.305894 1.049279 2.316869
v -1.250401 1.100932 2.259063
v 1.250401 1.100932 2.259063
v 1.305894 1.049279 2.316869
v 1.251559 1.016480 -2.031700
v 1.305894 1.049279 -2.316869
v -1.250401 1.017309 -2.030891
v -1.305894 1.049279 -2.316869
v -1.332790 0.584345 -2.577451
v 1.332790 0.584345 -2.577451
v 1.332790 0.176688 -2.577451
v -1.332790 0.176688 -2.577451
v -1.332790 2.158520 -2.364589
v 1.332790 2.158520 -2.364589
v 1.332790 2.158520 -2.577451
v -1.332790 2.158520 -2.577451
v -1.332790 0.584345 -2.364589
v 1.332790 0.584345 -2.364589
v 1.332790 2.158520 -2.364589
v -1.332790 2.158520 -2.364589
v 0.490536 1.135236 -0.059825
v -0.489834 1.135236 -0.059825
v 0.490989 1.347031 -1.756511
v -0.489834 1.347356 -1.756194
v -1.250401 1.313887 -2.334248
v 1.251559 1.313059 -2.335058
v -0.489834 1.643934 -2.059551
v 0.490989 1.643609 -2.059869
v -1.305894 1.128351 2.316869
v -1.250401 1.180004 2.259063
v -1.250401 1.096381 -2.030891
v -1.305894 1.128351 -2.316869
v 1.305894 1.128351 2.316869
v 1.250401 1.180004 2.259063
v 1.305894 1.128351 -2.316869
v 1.251559 1.095552 -2.031700
v 0.028069 1.203575 -1.307637
v 0.065099 1.228493 -1.268202
v 0.006328 1.229450 -1.258596
v 0.418181 1.428762 -1.771272
v 0.426469 1.403373 -1.718036
v 0.389439 1.378455 -1.757471
v 0.013330 1.305648 -1.223347
v 0.072102 1.304691 -1.232954
v 0.042072 1.355954 -1.237148
v 0.403442 1.530834 -1.686982
v 0.433471 1.479571 -1.682788
v 0.425183 1.504959 -1.736024
v -0.466693 1.494232 -1.535654
v -0.437951 1.544538 -1.549455
v -0.474981 1.519620 -1.588890
v -0.113612 1.694500 -2.038724
v -0.076581 1.719419 -1.999289
v -0.054840 1.693543 -2.048330
v -0.473696 1.418034 -1.570902
v -0.481984 1.443423 -1.624138
v -0.451954 1.392159 -1.619944
v -0.090585 1.567039 -2.069778
v -0.120614 1.618303 -2.073972
v -0.061842 1.617345 -2.083579
# 68 positions

vt 0.005000 0.292991
vt 0.273151 0.292991
vt 0.273151 0.334001
vt 0.005000 0.334001
vt 0.995000 0.163358
vt 0.726849 0.163358
vt 0.726849 0.204368
vt 0.995000 0.204368
vt 0.480745 0.273151
vt 0.480745 0.005000
vt 0.005000 0.005000
vt 0.005000 0.273151
vt 0.478129 0.777059
vt 0.478129 0.301314
vt 0.519138 0.301314
vt 0.519138 0.777059
vt 0.780351 0.783697
vt 0.780351 0.307952
vt 0.739341 0.307952
vt 0.739341 0.783697
vt 0.471144 0.279901
vt 0.465328 0.285483
vt 0.033769 0.285483
vt 0.005000 0.279901
vt 0.471144 0.542641
vt 0.465328 0.537059
vt 0.005000 0.542641
vt 0.033687 0.537175
vt 0.673848 0.313464
vt 0.644980 0.307952
vt 0.644565 0.570692
vt 0.673522 0.565155
vt 0.233883 0.625703
vt 0.233883 0.724326
vt 0.063200 0.724372
vt 0.063233 0.625703
vt 0.270446 0.380772
vt 0.007706 0.380772
vt 0.565910 0.306115
vt 0.565910 0.772259
vt 0.835578 0.480730
vt 0.835578 0.212578
vt 0.788561 0.215284
vt 0.788561 0.478024
vt 0.692570 0.312753
vt 0.692570 0.778896
vt 0.809975 0.487479
vt 0.809975 0.755631
vt 0.788561 0.755631
vt 0.788561 0.487479
vt 0.478129 0.279901
vt 0.519138 0.279901
vt 0.502158 0.273151
vt 0.502158 0.005000
vt 0.739341 0.805110
vt 0.780351 0.805110
vt 0.668279 0.273151
vt 0.668279 0.005000
vt 0.509920 0.005000
vt 0.509920 0.273151
vt 0.677497 0.279901
vt 0.677497 0.301314
vt 0.995000 0.005000
vt 0.726849 0.005000
vt 0.580983 0.783697
vt 0.580983 0.805110
vt 0.809975 0.487479
vt 0.809975 0.755631
vt 0.809975 0.755631
vt 0.809975 0.487479
vt 0.809975 0.755631
vt 0.809975 0.487479
vt 0.467158 0.549192
vt 0.467158 0.800767
vt 0.035517 0.800883
vt 0.005000 0.800883
vt 0.005081 0.549192
vt 0.032715 0.625703
vt 0.032683 0.724372
vt 0.035599 0.549192
vt 0.719154 0.256692
vt 0.719035 0.005000
vt 0.676357 0.005020
vt 0.676476 0.256712
vt 0.596875 0.772021
vt 0.588463 0.340461
vt 0.596418 0.340461
vt 0.604830 0.772021
vt 0.591679 0.311692
vt 0.599634 0.311692
vt 0.684615 0.312753
vt 0.684615 0.778896
vt 0.270446 0.388727
vt 0.007706 0.388727
vt 0.637559 0.559527
vt 0.637559 0.307952
vt 0.629605 0.307952
vt 0.629605 0.559527
vt 0.573864 0.306115
vt 0.573864 0.772259
vt 0.622185 0.768281
vt 0.625484 0.739593
vt 0.617530 0.739593
vt 0.614230 0.768281
vt 0.616988 0.307952
vt 0.609034 0.307952
vt 0.284834 0.333070
vt 0.279901 0.335257
vt 0.311318 0.383546
vt 0.316252 0.381359
vt 0.280867 0.329344
vt 0.330087 0.296717
vt 0.326120 0.292991
vt 0.053289 0.395942
vt 0.059201 0.395846
vt 0.059906 0.403511
vt 0.053994 0.403607
vt 0.104819 0.422578
vt 0.107709 0.427639
vt 0.155999 0.408668
vt 0.153107 0.403607
vt 0.342190 0.380630
vt 0.344744 0.375275
vt 0.352410 0.378821
vt 0.349856 0.384176
vt 0.056885 0.408668
vt 0.008596 0.427639
vt 0.005705 0.422578
vt 0.337420 0.429006
vt 0.332263 0.429428
vt 0.355013 0.383754
vt 0.394795 0.411280
vt 0.389861 0.413467
vt 0.358444 0.365178
vt 0.363377 0.362991
vt 0.286772 0.371535
vt 0.284218 0.376890
vt 0.291883 0.380436
vt 0.294438 0.375080
vt 0.404663 0.322913
vt 0.408630 0.326638
vt 0.359411 0.359266
vt 0.158315 0.395846
vt 0.152403 0.395942
vt 0.159020 0.403511
vt 0.297040 0.380014
vt 0.274291 0.425688
vt 0.279448 0.425266
vt 0.095555 0.413438
vt 0.096259 0.421103
vt 0.440047 0.374927
vt 0.194668 0.413438
vt 0.195373 0.421103
vt 0.361504 0.345006
vt 0.104114 0.414913
vt 0.005000 0.414913
vt 0.339683 0.376663
vt 0.281712 0.372923
# 158 texture coordinates

vn 0.000000 0.000000 1.000000
vn 0.000000 0.000000 1.000000
vn 0.000000 0.051118 0.998693
vn 0.000000 0.051118 0.998693
vn 0.000000 0.000000 -1.000000
vn 0.000000 0.000000 -1.000000
vn 0.000000 0.000000 -1.000000
vn 0.000000 0.000000 -1.000000
vn 0.000000 -1.000000 0.000000
vn 0.000000 -1.000000 0.000000
vn 0.000000 -1.000000 0.000000
vn 0.000000 -1.000000 0.000000
vn 1.000000 0.000000 0.000000
vn 1.000000 0.000000 0.000000
vn 0.999583 0.028888 0.000000
vn 0.999583 0.028888 0.000000
vn -1.000000 0.000000 0.000000
vn -1.000000 0.000000 0.000000
vn -0.999583 0.028888 0.000000
vn -0.999583 0.028888 0.000000
vn -0.156136 0.987692 -0.009256
vn -0.156136 0.987692 -0.009256
vn -0.156136 0.987692 -0.009256
vn -0.156136 0.987692 -0.009256
vn 0.000000 0.745678 0.666307
vn 0.000000 0.745678 0.666307
vn 0.000000 0.745678 0.666307
vn 0.000000 0.745678 0.666307
vn 0.150383 0.988584 -0.009335
vn 0.150383 0.988584 -0.009335
vn 0.150383 0.988584 -0.009335
vn 0.150383 0.988584 -0.009335
vn 0.000179 0.993631 0.112679
vn 0.000179 0.993631 0.112679
vn 0.000179 0.993631 0.112679
vn 0.000179 0.993631 0.112679
vn 0.000184 0.992286 0.123972
vn 0.000184 0.992286 0.123972
vn 0.000184 0.992286 0.123972
vn 0.000184 0.992286 0.123972
vn 0.000000 0.102102 0.994774
vn 0.000000 0.102102 0.994774
vn 0.998331 0.057753 0.000000
vn 0.998331 0.057753 0.000000
vn 0.000000 0.102102 -0.994774
vn 0.000000 0.102102 -0.994774
vn 0.000000 0.102102 -0.994774
vn 0.000000 0.102102 -0.994774
vn -0.998331 0.057753 0.000000
vn -0.998331 0.057753 0.000000
vn 0.000000 1.000000 0.000000
vn 0.000000 1.000000 0.000000
vn 0.000000 1.000000 0.000000
vn 0.000000 1.000000 0.000000
vn 1.000000 0.000000 0.000000
vn 1.000000 0.000000 0.000000
vn 1.000000 0.000000 0.000000
vn 0.000000 -1.000000 0.000000
vn 0.000000 -1.000000 0.000000
vn -1.000000 0.000000 0.000000
vn -1.000000 0.000000 0.000000
vn -1.000000 0.000000 0.000000
vn 0.000000 0.000000 1.000000
vn 0.000000 0.000000 1.000000
vn 0.000000 0.000000 1.000000
vn 0.000000 0.000000 1.000000
vn 1.000000 0.000000 0.000000
vn 1.000000 0.000000 0.000000
vn 0.000000 0.000000 -1.000000
vn 0.000000 0.000000 -1.000000
vn -1.000000 0.000000 0.000000
vn -1.000000 0.000000 0.000000
vn 0.000000 1.000000 0.000000
vn 0.000000 1.000000 0.000000
vn 0.000000 1.000000 0.000000
vn 0.000000 1.000000 0.000000
vn 0.000000 1.000000 0.000000
vn 0.000000 1.000000 0.000000
vn 0.000000 1.000000 0.000000
vn 0.000000 1.000000 0.000000
vn 0.000000 1.000000 0.000000
vn 0.000000 1.000000 0.000000
vn 0.000000 0.999891 0.014792
vn 0.000000 0.999891 0.014792
vn 0.000000 0.999891 0.014792
vn 0.000000 0.999891 0.014792
vn 0.206693 0.978184 0.020860
vn 0.206693 0.978184 0.020860
vn 0.206693 0.978184 0.020860
vn 0.206693 0.978184 0.020860
vn -0.000037 0.639764 -0.768571
vn -0.000037 0.639764 -0.768571
vn -0.000037 0.639764 -0.768571
vn -0.000037 0.639764 -0.768571
vn -0.206109 0.978304 0.020999
vn -0.206109 0.978304 0.020999
vn -0.206109 0.978304 0.020999
vn -0.206109 0.978304 0.020999
vn -0.000463 -0.715051 -0.699072
vn -0.000463 -0.715051 -0.699072
vn -0.000463 -0.715051 -0.699072
vn -0.000463 -0.715051 -0.699072
vn -0.490448 0.623146 0.609221
vn -0.490448 0.623146 0.609221
vn -0.490448 0.623146 0.609221
vn -0.490448 0.623146 0.609221
vn 0.000463 0.715052 0.699071
vn 0.000463 0.715052 0.699071
vn 0.000463 0.715052 0.699071
vn 0.000463 0.715052 0.699071
vn 0.491059 0.622901 0.608980
vn 0.491059 0.622901 0.608980
vn 0.491059 0.622901 0.608980
vn 0.491059 0.622901 0.608980
vn 1.000000 0.000000 0.000000
vn 1.000000 0.000000 0.000000
vn 1.000000 0.000000 0.000000
vn 1.000000 0.000000 0.000000
vn 0.981689 0.000000 -0.190493
vn 0.981689 0.000000 -0.190493
vn 0.981689 0.000000 -0.190493
vn 0.981689 0.000000 -0.190493
vn -1.000000 0.000000 0.000000
vn -1.000000 0.000000 0.000000
vn -1.000000 0.000000 0.000000
vn -1.000000 0.000000 0.000000
vn 0.000000 0.000000 1.000000
vn 0.000000 0.000000 1.000000
vn 0.000000 0.000000 1.000000
vn 0.000000 0.000000 1.000000
vn 0.000000 0.000000 -1.000000
vn 0.000000 0.000000 -1.000000
vn 0.000000 0.000000 -1.000000
vn 0.000000 0.000000 -1.000000
vn 1.000000 0.000000 0.000000
vn 1.000000 0.000000 0.000000
vn 1.000000 0.000000 0.000000
vn 1.000000 0.000000 0.000000
vn -0.982328 0.000000 -0.187169
vn -0.982328 0.000000 -0.187169
vn -0.982328 0.000000 -0.187169
vn -0.982328 0.000000 -0.187169
vn -1.000000 0.000000 -0.000270
vn -1.000000 0.000000 -0.000270
vn -1.000000 0.000000 -0.000270
vn -1.000000 0.000000 -0.000270
vn -0.482581 -0.844647 0.231705
vn -0.482581 -0.844647 0.231705
vn -0.482581 -0.844647 0.231705
vn -0.482581 -0.844647 0.231705
vn 0.504192 -0.860716 0.070422
vn 0.504192 -0.860716 0.070422
vn 0.504192 -0.860716 0.070422
vn 0.504192 -0.860716 0.070422
vn 0.139160 -0.426266 0.893830
vn 0.139160 -0.426266 0.893830
vn 0.139160 -0.426266 0.893830
vn 0.139160 -0.426266 0.893830
vn 0.365035 -0.434453 -0.823408
vn 0.365035 -0.434453 -0.823408
vn 0.365035 -0.434453 -0.823408
vn 0.365035 -0.434453 -0.823408
vn 0.986777 -0.016068 -0.161288
vn 0.986777 -0.016068 -0.161288
vn 0.986777 -0.016068 -0.161288
vn 0.986777 -0.016068 -0.161288
vn -0.365034 0.434455 0.823407
vn -0.365034 0.434455 0.823407
vn -0.365034 0.434455 0.823407
vn -0.365034 0.434455 0.823407
vn 0.621738 0.418379 0.662118
vn 0.621738 0.418379 0.662118
vn 0.621738 0.418379 0.662118
vn 0.621738 0.418379 0.662118
vn 0.482586 0.844642 -0.231715
vn 0.482586 0.844642 -0.231715
vn 0.482586 0.844642 -0.231715
vn 0.482586 0.844642 -0.231715
vn -0.986776 0.016078 0.161293
vn -0.986776 0.016078 0.161293
vn -0.986776 0.016078 0.161293
vn -0.986776 0.016078 0.161293
vn -0.504194 0.860714 -0.070423
vn -0.504194 0.860714 -0.070423
vn -0.504194 0.860714 -0.070423
vn -0.504194 0.860714 -0.070423
vn -0.139155 0.426267 -0.893830
vn -0.139155 0.426267 -0.893830
vn -0.139155 0.426267 -0.893830
vn -0.139155 0.426267 -0.893830
vn -0.621742 -0.418373 -0.662119
vn -0.621742 -0.418373 -0.662119
vn -0.621742 -0.418373 -0.662119
vn -0.621742 -0.418373 -0.662119
vn 0.796154 -0.312777 0.517985
vn 0.796154 -0.312777 0.517985
vn 0.796154 -0.312777 0.517985
vn 0.796154 -0.312777 0.517985
vn 0.083118 0.904454 0.418394
vn 0.083118 0.904454 0.418394
vn 0.083118 0.904454 0.418394
vn 0.083118 0.904454 0.418394
vn -0.796154 0.312781 -0.517984
vn -0.796154 0.312781 -0.517984
vn -0.796154 0.312781 -0.517984
vn -0.796154 0.312781 -0.517984
vn -0.083118 -0.904455 -0.418393
vn -0.083118 -0.904455 -0.418393
vn -0.083118 -0.904455 -0.418393
vn -0.083118 -0.904455 -0.418393
vn 0.599358 0.290055 -0.746082
vn 0.599358 0.290055 -0.746082
vn 0.599358 0.290055 -0.746082
vn 0.599358 0.290055 -0.746082
vn -0.599358 -0.290051 0.746084
vn -0.599358 -0.290051 0.746084
vn -0.599358 -0.290051 0.746084
vn -0.599358 -0.290051 0.746084
vn 0.065633 -0.870234 0.488248
vn 0.065633 -0.870234 0.488248
vn 0.065633 -0.870234 0.488248
vn 0.757714 -0.535303 -0.373256
vn 0.757714 -0.535303 -0.373256
vn 0.757714 -0.535303 -0.373256
vn 0.161619 0.174148 0.971366
vn 0.161619 0.174148 0.971366
vn 0.161619 0.174148 0.971366
vn 0.853688 0.509064 0.109865
vn 0.853688 0.509064 0.109865
vn 0.853688 0.509064 0.109865
vn -0.757711 0.535312 0.373250
vn -0.757711 0.535312 0.373250
vn -0.757711 0.535312 0.373250
vn -0.065635 0.870225 -0.488263
vn -0.065635 0.870225 -0.488263
vn -0.065635 0.870225 -0.488263
vn -0.853684 -0.509069 -0.109878
vn -0.853684 -0.509069 -0.109878
vn -0.853684 -0.509069 -0.109878
vn -0.161618 -0.174141 -0.971367
vn -0.161618 -0.174141 -0.971367
vn -0.161618 -0.174141 -0.971367
# 242 normals

usemtl initialShadingGroup
s 1
f 1/1/1 2/2/2 4/3/3 3/4/4
f 3/4/4 4/3/3 12/37/41 9/38/42
s 2
f 17/5/5 18/6/6 19/7/7 20/8/8
f 18/6/6 17/5/5 24/63/69 23/64/70
s 3
f 7/9/9 8/10/10 2/11/11 1/12/12
f 8/10/10 7/9/9 20/53/58 19/54/59
s 4
f 2/13/13 8/14/14 6/15/15 4/16/16
f 4/16/16 6/15/15 14/39/43 12/40/44
s 5
f 7/17/17 1/18/18 3/19/19 5/20/20
f 5/20/20 3/19/19 9/45/49 16/46/50
s 6
f 37/21/21 38/22/22 39/23/23 40/24/24
s 7
f 38/22/25 37/21/26 41/25/27 42/26/28
s 8
f 42/26/29 41/25/30 43/27/31 44/28/32
s 9
f 13/29/33 14/30/34 16/31/35 15/32/36
s 10
f 30/33/37 29/34/38 31/35/39 32/36/40
s 11
f 6/41/45 5/42/46 16/43/47 14/44/48
s 12
f 21/47/51 22/48/52 23/49/53 24/50/54
s 13
f 6/15/55 8/14/14 19/51/56 18/52/57
f 6/15/55 18/52/57 23/61/67 22/62/68
s 14
f 7/17/17 5/20/60 17/55/61 20/56/62
f 17/55/61 5/20/60 21/65/71 24/66/72
s 15
f 25/57/63 26/58/64 27/59/65 28/60/66
f 5/67/73 6/68/74 26/69/64 25/70/63
s 16
f 6/68/75 22/48/76 27/71/77 26/69/78
f 22/48/76 21/47/79 28/72/80 27/71/77
f 21/47/79 5/67/81 25/70/82 28/72/80
s 17
f 10/73/83 11/74/84 29/34/85 30/33/86
s 18
f 11/74/87 13/75/88 31/35/89 29/34/90
s 19
f 34/76/91 33/77/92 35/78/93 36/79/94
s 20
f 15/80/95 10/73/96 30/33/97 32/36/98
s 21
f 13/81/99 15/82/100 33/83/101 34/84/102
s 22
f 15/80/103 32/36/104 35/78/105 33/77/106
s 23
f 32/36/107 31/35/108 36/79/109 35/78/110
s 24
f 31/35/111 13/75/112 34/76/113 36/79/114
s 25
f 10/85/115 15/86/116 39/87/117 38/88/118
s 26
f 15/86/119 16/89/120 40/90/121 39/87/122
s 27
f 16/46/123 9/45/124 37/91/125 40/92/126
s 28
f 9/38/127 12/37/128 41/93/129 37/94/130
s 29
f 11/95/131 10/96/132 38/97/133 42/98/134
s 30
f 12/40/135 14/39/136 43/99/137 41/100/138
s 31
f 14/101/139 13/102/140 44/103/141 43/104/142
s 32
f 13/102/143 11/105/144 42/106/145 44/103/146
s 33
f 45/107/147 47/108/148 63/109/149 65/110/150
s 34
f 46/111/151 45/107/152 50/112/153 49/113/154
s 35
f 47/114/155 46/115/156 52/116/157 51/117/158
s 36
f 48/118/159 50/119/160 66/120/161 68/121/162
s 37
f 49/122/163 48/123/164 56/124/165 55/125/166
s 38
f 51/117/167 53/126/168 58/127/169 57/128/170
s 39
f 53/129/171 52/130/172 55/125/173 54/131/174
s 40
f 54/132/175 56/133/176 62/134/177 61/135/178
s 41
f 57/136/179 59/137/180 64/138/181 63/139/182
s 42
f 59/140/183 58/141/184 61/135/185 60/142/186
s 43
f 60/143/187 62/144/188 68/121/189 67/145/190
s 44
f 65/146/191 64/138/192 67/147/193 66/148/194
s 45
f 46/115/195 49/149/196 55/150/197 52/116/198
s 46
f 53/151/199 54/132/200 61/135/201 58/141/202
s 47
f 59/152/203 60/143/204 67/145/205 64/153/206
s 48
f 65/110/207 66/154/208 50/112/209 45/107/210
s 49
f 48/118/211 68/121/212 62/144/213 56/155/214
s 50
f 63/156/215 47/114/216 51/117/217 57/128/218
s 51
f 45/107/219 46/111/220 47/108/221
s 52
f 48/123/222 49/122/223 50/157/224
s 53
f 51/117/225 52/116/226 53/126/227
s 54
f 54/131/228 55/125/229 56/124/230
s 55
f 57/136/231 58/158/232 59/137/233
s 56
f 60/142/234 61/135/235 62/134/236
s 57
f 63/139/237 64/138/238 65/146/239
s 58
f 66/120/240 67/145/241 68/121/242

# 68 faces
